<?xml version="1.0" encoding="UTF-8" standalone="no"?><!DOCTYPE svg PUBLIC "-//W3C//DTD SVG 1.1//EN" "http://www.w3.org/Graphics/SVG/1.1/DTD/svg11.dtd"><svg width="100%" height="100%" viewBox="0 0 2000 1428" version="1.1" xmlns="http://www.w3.org/2000/svg" xmlns:xlink="http://www.w3.org/1999/xlink" xml:space="preserve" xmlns:serif="http://www.serif.com/" style="fill-rule:evenodd;clip-rule:evenodd;stroke-linejoin:round;stroke-miterlimit:2;"><g id="g10"><clipPath id="_clip1"><rect x="402.772" y="0" width="1190.5" height="934.079"/></clipPath><g clip-path="url(#_clip1)"><g id="g12"><path id="path14" d="M1126.58,232.228c-9.805,-34.639 -34.439,-53.345 -73.872,-56.122c-0.194,-0 -4.817,0.088 -13.889,0.283l0,30.272l-44.722,0l-0,21.117l44.722,-0l0,36.933l-44.722,0l-0,21.117l44.722,-0l0,30.272c9.072,0.2 13.695,0.283 13.889,0.283c30.556,-1.3 52.956,-13.972 67.211,-38.061c24.634,12.778 46.856,28.711 66.667,47.784l-108.333,148.327c-25.173,33.706 -54.339,50.85 -87.5,51.389c-33.139,-0.733 -62.306,-17.855 -87.5,-51.389l-106.662,-146.111c20.006,-19.989 42.862,-36.655 68.617,-50c13.889,24.089 36.289,36.761 67.211,38.061c0,-0.194 4.534,-0.283 13.606,-0.283l-0,-139.711c-9.072,-0.195 -13.606,-0.283 -13.606,-0.283c-39.628,2.777 -64.433,21.483 -74.433,56.122c-58.333,27.211 -104.256,66.839 -137.783,118.878c-33.706,52.216 -50.828,110.655 -51.389,175.283c2.405,91.472 34.072,167.689 95.005,228.6c60.917,61.111 137.134,92.778 228.606,95.011c91.666,-2.411 167.861,-34.072 228.6,-95.011c60.939,-60.739 92.6,-136.933 95.011,-228.6c-0.739,-64.628 -17.861,-123.067 -51.389,-175.283c-33.706,-52.039 -79.733,-91.667 -138.067,-118.878m-134.155,573.044c-78.884,-2.039 -144.639,-29.25 -197.222,-81.661c-52.412,-52.605 -79.623,-118.339 -81.662,-197.222l0,-0.283c0.912,-57.228 16.467,-108.528 46.656,-153.884l73.611,128.884c16.667,27.216 32.139,62.216 46.4,104.994c14.622,42.967 24.433,96.311 29.445,160c26.111,8.9 53.688,13.522 82.772,13.889c28.516,-0.367 55.639,-4.9 81.378,-13.606c5.75,-70.183 16.583,-127.405 32.511,-171.655c15.927,-44.078 32.961,-79.817 51.105,-107.228l65.845,-117.511c31.094,46.111 47.022,98.155 47.761,156.117l-0,0.283c-1.845,78.883 -29.056,144.617 -81.661,197.222c-52.411,52.411 -118.056,79.622 -196.939,81.661"/><path id="path16" d="M925.761,427.778c0.367,18.878 6.856,34.633 19.445,47.222c12.583,12.411 28.233,18.878 46.938,19.444c18.9,-0.566 34.634,-7.033 47.223,-19.444c12.411,-12.589 18.9,-28.344 19.444,-47.222c-0.544,-18.706 -7.033,-34.356 -19.444,-46.939c-12.589,-12.611 -28.323,-19.078 -47.223,-19.445c-18.705,0.367 -34.355,6.834 -46.938,19.445c-12.589,12.583 -19.078,28.233 -19.445,46.939"/><path id="path18" d="M1201.32,0l-129.166,75.822l23.611,11.111l-73.611,73.611l129.166,-75.277l-23.611,-11.656l73.611,-73.611" style="fill:#ffc223;"/><path id="path20" d="M916.039,75.822l-129.167,-75.822l73.611,73.611l-23.611,11.656l129.167,75.277l-73.611,-73.611l23.611,-11.111" style="fill:#ffc223;"/><path id="path22" d="M26.456,1045.21l4.772,0c14,0 23.284,-1.606 27.867,-4.861c4.622,-3.301 6.944,-9.117 6.944,-17.45c0,-8.963 -2.478,-15.278 -7.378,-18.924c-4.928,-3.643 -14.067,-5.47 -27.433,-5.47l-4.772,-0l0,46.705Zm-1.651,20.571l-0,72.827l-24.827,0l0,-162.842l36.977,-0c10.812,-0 19.206,0.737 25.178,2.166c5.944,1.389 11.044,3.71 15.278,6.944c5.032,3.95 8.896,9.028 11.628,15.278c2.778,6.211 4.167,13.023 4.167,20.488c-0,13.023 -3.167,23.24 -9.463,30.64c-6.31,7.361 -15.62,11.789 -27.949,13.284l56.079,74.042l-29.861,0l-54.167,-72.827l-3.04,-0Zm98.763,-78.21c-0,-4.038 1.499,-7.556 4.516,-10.505c2.994,-2.995 6.549,-4.512 10.677,-4.512c4.338,0 7.917,1.449 10.762,4.338c2.821,2.845 4.255,6.402 4.255,10.679c0,4.295 -1.456,7.9 -4.345,10.849c-2.905,2.951 -6.466,4.429 -10.672,4.429c-4.128,0 -7.683,-1.499 -10.677,-4.518c-3.017,-2.993 -4.516,-6.593 -4.516,-10.76Zm3.209,45.571l24.134,-0l0,105.466l-24.134,0l0,-105.466Z" style="fill:#050505;fill-rule:nonzero;"/><path id="path24" d="M261.044,1085.57c-0,-10.934 -2.561,-19.445 -7.639,-25.517c-5.1,-6.079 -12.194,-9.117 -21.265,-9.117c-9.156,0 -16.363,3.166 -21.613,9.462c-5.21,6.25 -7.816,14.933 -7.816,26.044c-0,11.239 2.517,19.878 7.556,25.95c5.078,6.077 12.194,9.117 21.35,9.117c8.789,0 15.89,-3.255 21.271,-9.811c5.424,-6.595 8.156,-15.295 8.156,-26.128Zm-0.695,-119.356l24.134,0l0,172.393l-24.134,0l0,-13.715c-4.295,6.077 -9.327,10.638 -15.1,13.633c-5.733,2.949 -12.304,4.423 -19.705,4.423c-14.932,0 -26.694,-5.078 -35.245,-15.278c-8.505,-10.178 -12.76,-24.151 -12.76,-41.923c-0,-16.777 4.362,-30.338 13.105,-40.716c8.729,-10.349 20.139,-15.534 34.206,-15.534c8.611,0 15.972,1.799 22.044,5.378c6.123,3.607 10.617,8.767 13.455,15.538l0,-84.199Z" style="fill:#050505;fill-rule:nonzero;"/><path id="path26" d="M315.755,987.567c-0,-4.038 1.496,-7.556 4.512,-10.505c2.999,-2.995 6.556,-4.512 10.677,-4.512c4.345,0 7.923,1.449 10.766,4.338c2.823,2.845 4.251,6.402 4.251,10.679c0,4.295 -1.449,7.9 -4.338,10.849c-2.906,2.951 -6.467,4.429 -10.679,4.429c-4.121,0 -7.678,-1.499 -10.677,-4.518c-3.016,-2.993 -4.512,-6.593 -4.512,-10.76Zm3.212,45.571l24.132,-0l0,105.466l-24.132,0l0,-105.466Z" style="fill:#050505;fill-rule:nonzero;"/><path id="path28" d="M456.183,1063.17c-3.711,-4.035 -8.027,-7.14 -12.932,-9.291c-4.929,-2.126 -10.245,-3.209 -15.972,-3.209c-9.851,-0 -17.752,3.188 -23.696,9.548c-5.905,6.378 -8.854,14.822 -8.854,25.346c-0,10.939 2.97,19.579 8.939,25.872c5.944,6.25 14.192,9.373 24.737,9.373c5.84,-0 11.051,-1.083 15.629,-3.301c4.62,-2.19 8.677,-5.488 12.149,-9.894l-0,27.778c-4.466,2.493 -9.245,4.36 -14.321,5.644c-5.035,1.255 -10.416,1.906 -16.146,1.906c-16.493,0 -29.95,-5.249 -40.367,-15.794c-10.416,-10.528 -15.62,-24.156 -15.62,-40.89c-0,-17.012 5.382,-30.727 16.143,-41.144c10.766,-10.416 24.851,-15.623 42.272,-15.623c5.495,0 10.528,0.563 15.107,1.645c4.622,1.044 8.943,2.693 12.932,4.95l-0,27.084Z" style="fill:#050505;fill-rule:nonzero;"/><path id="path30" d="M504.473,1033.14l-0,59.462c-0,10.199 2.105,17.511 6.332,21.962c4.212,4.472 11.072,6.681 20.573,6.681c9.484,0 16.343,-2.209 20.578,-6.681c4.205,-4.451 6.333,-11.763 6.333,-21.962l-0,-59.462l24.133,-0l0,52.168c0,20.206 -4.061,34.876 -12.155,44.011c-8.05,9.095 -20.918,13.628 -38.629,13.628c-18.01,0 -31.054,-4.512 -39.149,-13.539c-8.112,-9.072 -12.151,-23.783 -12.151,-44.1l0,-52.168l24.135,-0Z" style="fill:#050505;fill-rule:nonzero;"/><rect id="path32" x="616.144" y="966.211" width="24.134" height="172.394" style="fill:#050505;fill-rule:nonzero;"/><path id="path34" d="M757.528,1086.26c-0,-9.829 -3.167,-18.138 -9.461,-24.911c-6.311,-6.773 -14.039,-10.157 -23.178,-10.157c-9.028,0 -16.728,3.384 -23.089,10.157c-6.311,6.773 -9.461,15.082 -9.461,24.911c-0,9.79 3.15,18.056 9.461,24.828c6.361,6.771 14.061,10.154 23.089,10.154c9.072,0 16.778,-3.383 23.094,-10.154c6.356,-6.772 9.545,-15.038 9.545,-24.828Zm-90.622,-0.26c-0,-7.679 1.433,-14.95 4.338,-21.784c2.95,-6.884 7.162,-13.024 12.673,-18.405c5.383,-5.25 11.589,-9.291 18.666,-12.069c7.05,-2.821 14.428,-4.249 22.134,-4.249c7.922,0 15.389,1.428 22.394,4.249c6.989,2.778 13.283,6.923 18.839,12.418c5.556,5.445 9.767,11.588 12.672,18.401c2.889,6.838 4.345,13.977 4.345,21.439c-0,7.771 -1.456,15.06 -4.345,21.877c-2.839,6.833 -6.983,12.888 -12.411,18.144c-5.794,5.556 -12.217,9.761 -19.272,12.582c-7.072,2.891 -14.472,4.341 -22.222,4.341c-7.639,0 -14.995,-1.45 -22.05,-4.341c-7.073,-2.821 -13.323,-6.944 -18.75,-12.326c-5.617,-5.488 -9.873,-11.651 -12.756,-18.489c-2.844,-6.81 -4.255,-14.082 -4.255,-21.788Z" style="fill:#050505;fill-rule:nonzero;"/><path id="path36" d="M831.9,1033.14l-0,59.462c-0,10.199 2.106,17.511 6.339,21.962c4.211,4.472 11.067,6.681 20.572,6.681c9.483,0 16.339,-2.209 20.572,-6.681c4.211,-4.451 6.339,-11.763 6.339,-21.962l0,-59.462l24.128,-0l-0,52.168c-0,20.206 -4.056,34.876 -12.15,44.011c-8.05,9.095 -20.922,13.628 -38.628,13.628c-18.011,0 -31.055,-4.512 -39.15,-13.539c-8.116,-9.072 -12.155,-23.783 -12.155,-44.1l-0,-52.168l24.133,-0Z" style="fill:#050505;fill-rule:nonzero;"/><path id="path38" d="M930.383,1119.51l19.961,-10.94c1.5,5.274 4.256,9.288 8.25,12.066c3.995,2.734 9.134,4.078 15.45,4.078c5.428,-0 9.678,-1.233 12.762,-3.733c3.061,-2.472 4.6,-5.855 4.6,-10.156c-0,-5.727 -5.512,-10.61 -16.495,-14.666c-3.711,-1.389 -6.55,-2.522 -8.505,-3.39c-11.284,-4.687 -19.184,-9.416 -23.695,-14.232c-4.472,-4.8 -6.689,-10.633 -6.689,-17.538c0,-9.417 3.672,-17.055 11.028,-22.917c7.4,-5.833 17.183,-8.767 29.339,-8.767c8.161,-0 15.128,1.523 20.922,4.515c5.833,2.952 10.089,7.207 12.756,12.763l-17.1,11.806c-1.278,-3.301 -3.511,-5.929 -6.684,-7.902c-3.122,-1.955 -6.772,-2.949 -10.939,-2.949c-4.577,0 -8.244,1.104 -11.022,3.294c-2.778,2.151 -4.166,5.039 -4.166,8.683c-0,5.512 6.205,10.501 18.666,15.017c3.928,1.389 6.961,2.561 9.111,3.473c9.723,3.817 16.667,8.161 20.834,13.022c4.211,4.862 6.339,10.934 6.339,18.228c-0,10.544 -3.823,18.795 -11.462,24.739c-7.638,5.944 -18.183,8.939 -31.594,8.939c-10.311,0 -18.883,-1.906 -25.694,-5.729c-6.839,-3.861 -12.156,-9.766 -15.973,-17.704Z" style="fill:#050505;fill-rule:nonzero;"/><path id="path40" d="M1101.11,1106.05l21.094,-9.811c2.017,7.251 5.689,12.763 11.022,16.585c5.322,3.817 12.156,5.726 20.489,5.726c7.811,0 14.017,-2.172 18.661,-6.51c4.689,-4.383 7.034,-10.267 7.034,-17.621c-0,-9.551 -7.967,-18.056 -23.873,-25.523c-2.211,-1.151 -3.883,-1.994 -5.033,-2.518c-18.011,-8.721 -29.994,-16.621 -35.939,-23.693c-5.967,-7.055 -8.939,-15.716 -8.939,-25.955c0,-13.305 4.511,-24.067 13.539,-32.296c9.028,-8.199 20.833,-12.326 35.417,-12.326c11.978,-0 22.005,2.321 30.122,6.944c8.094,4.644 13.717,11.289 16.839,19.965l-20.745,10.68c-3.255,-5.079 -6.838,-8.811 -10.766,-11.2c-3.884,-2.362 -8.334,-3.558 -13.367,-3.558c-7.117,0 -12.8,1.869 -17.011,5.556c-4.167,3.711 -6.25,8.657 -6.25,14.846c-0,9.783 9.2,18.922 27.6,27.426c1.433,0.651 2.561,1.129 3.389,1.478c16.078,7.468 27.105,14.735 33.072,21.79c6.011,7.073 9.028,15.927 9.028,26.561c-0,15.406 -4.861,27.649 -14.583,36.717c-9.678,9.095 -22.789,13.628 -39.323,13.628c-13.889,0 -25.261,-3.19 -34.116,-9.544c-8.856,-6.361 -14.645,-15.473 -17.361,-27.347Z" style="fill:#050505;fill-rule:nonzero;"/><path id="path42" d="M1316.3,1086.26c-0,-9.829 -3.172,-18.138 -9.467,-24.911c-6.311,-6.773 -14.039,-10.157 -23.172,-10.157c-9.028,0 -16.733,3.384 -23.094,10.157c-6.311,6.773 -9.461,15.082 -9.461,24.911c-0,9.79 3.15,18.056 9.461,24.828c6.361,6.771 14.066,10.154 23.094,10.154c9.067,0 16.772,-3.383 23.089,-10.154c6.356,-6.772 9.55,-15.038 9.55,-24.828Zm-90.628,-0.26c0,-7.679 1.434,-14.95 4.339,-21.784c2.956,-6.884 7.161,-13.024 12.678,-18.405c5.378,-5.25 11.589,-9.291 18.661,-12.069c7.05,-2.821 14.433,-4.249 22.133,-4.249c7.923,0 15.389,1.428 22.4,4.249c6.984,2.778 13.278,6.923 18.834,12.418c5.555,5.445 9.766,11.588 12.672,18.401c2.889,6.838 4.344,13.977 4.344,21.439c0,7.771 -1.455,15.06 -4.344,21.877c-2.839,6.833 -6.983,12.888 -12.411,18.144c-5.795,5.556 -12.217,9.761 -19.272,12.582c-7.073,2.891 -14.473,4.341 -22.223,4.341c-7.639,0 -14.994,-1.45 -22.044,-4.341c-7.078,-2.821 -13.328,-6.944 -18.75,-12.326c-5.622,-5.488 -9.878,-11.651 -12.761,-18.489c-2.845,-6.81 -4.256,-14.082 -4.256,-21.788Z" style="fill:#050505;fill-rule:nonzero;"/><path id="path44" d="M1370.71,1138.6l-0,-84.287l-18.495,-0l0,-21.179l18.495,-0l-0,-28.21c-0,-13.999 2.883,-24.329 8.677,-30.989c5.839,-6.706 14.867,-10.072 27.084,-10.072c2.605,0 5.25,0.217 7.989,0.606c2.777,0.349 5.572,0.933 8.416,1.738l0,21.788c-1.972,-1.083 -3.95,-1.91 -5.9,-2.432c-1.978,-0.56 -3.95,-0.866 -5.905,-0.866c-5.795,-0 -9.961,1.798 -12.5,5.381c-2.495,3.54 -3.734,9.53 -3.734,17.967l0,25.089l25.35,-0l0,21.179l-25.35,-0l0,84.287l-24.127,0Z" style="fill:#050505;fill-rule:nonzero;"/><path id="path46" d="M1442.88,1138.6l0,-84.287l-18.489,-0l0,-21.179l18.489,-0l0,-39.932l24.128,-0l0,39.932l18.406,-0l-0,21.179l-18.406,-0l0,84.287l-24.128,0Z" style="fill:#050505;fill-rule:nonzero;"/><path id="path48" d="M1606.99,1144.94l-24.306,-54.861c-1.866,-4.21 -3.389,-7.988 -4.6,-11.282c-1.172,-3.301 -2.239,-6.534 -3.211,-9.722c-1.628,4.818 -3.083,8.939 -4.344,12.411c-1.278,3.472 -2.3,6.054 -3.039,7.728l-25,55.726l-54.6,-111.805l25.694,-0l23.7,50.868c0.978,2.148 1.934,5.1 2.867,8.854c0.911,3.711 1.689,7.856 2.339,12.411c0.044,-2.71 0.478,-5.488 1.305,-8.333c0.867,-2.882 2.256,-6.443 4.167,-10.677l25.778,-56.944l2,-0l26.3,56.944c1.605,3.54 2.8,6.838 3.561,9.9c0.8,3.017 1.256,6.05 1.389,9.11c0.694,-4.032 1.561,-7.832 2.605,-11.371c1.039,-3.579 2.212,-6.81 3.556,-9.722l23.267,-51.04l25.433,-0l-54.861,111.805Z" style="fill:#050505;fill-rule:nonzero;"/><path id="path50" d="M1776.17,1138.6l-24.133,0l-0,-13.715c-4.295,6.077 -9.328,10.638 -15.106,13.633c-5.727,2.949 -12.3,4.423 -19.7,4.423c-14.933,0 -26.694,-5.078 -35.244,-15.278c-8.506,-10.178 -12.761,-24.151 -12.761,-41.923c-0,-16.777 4.361,-30.338 13.105,-40.716c8.728,-10.349 20.139,-15.534 34.206,-15.534c8.611,0 15.972,1.799 22.044,5.378c6.123,3.607 10.611,8.767 13.456,15.538l-0,-17.272l24.133,-0l0,105.466Zm-23.439,-53.037c0,-10.934 -2.561,-19.445 -7.639,-25.517c-5.1,-6.079 -12.194,-9.117 -21.266,-9.117c-9.156,0 -16.361,3.166 -21.617,9.462c-5.205,6.25 -7.811,14.933 -7.811,26.044c-0,11.239 2.517,19.878 7.556,25.95c5.077,6.077 12.194,9.117 21.35,9.117c8.683,0 15.733,-3.3 21.183,-9.896c5.489,-6.599 8.244,-15.278 8.244,-26.043Z" style="fill:#050505;fill-rule:nonzero;"/><path id="path52" d="M1833.66,1049.98c2.6,-6.99 6.011,-12.15 10.239,-15.451c4.278,-3.344 9.572,-5.033 15.889,-5.033c3.405,0 6.767,0.41 10.067,1.212c3.3,0.828 6.533,2 9.722,3.561l-8.678,20.484c-2.039,-1.496 -4.256,-2.6 -6.683,-3.295c-2.434,-0.694 -5.123,-1.046 -8.078,-1.046c-7.983,0 -13.756,3.212 -17.272,9.64c-3.473,6.421 -5.206,17.183 -5.206,32.289l0,46.265l-24.133,0l-0,-105.637l24.133,-0l0,17.011Z" style="fill:#050505;fill-rule:nonzero;"/><path id="path54" d="M1995.16,1089.47l-84.289,-0c0.567,9.854 3.495,17.539 8.767,23.094c5.25,5.51 12.261,8.245 21.005,8.245c7.817,-0 14.284,-1.606 19.445,-4.861c5.211,-3.301 9.744,-8.551 13.633,-15.801l20.311,11.289c-5.905,10.655 -13.261,18.572 -22.05,23.782c-8.744,5.146 -18.989,7.724 -30.727,7.724c-16.973,0 -30.45,-5.139 -40.45,-15.452c-9.962,-10.282 -14.934,-24.042 -14.934,-41.232c0,-16.532 5.145,-30.139 15.45,-40.794c10.356,-10.634 23.656,-15.973 39.934,-15.973c16.95,0 30.161,4.862 39.666,14.584c9.484,9.722 14.239,23.326 14.239,40.794l0,4.601Zm-25,-16.229c-1,-7.578 -3.905,-13.326 -8.767,-17.278c-4.816,-3.993 -11.372,-5.988 -19.705,-5.988c-7.945,0 -14.322,1.955 -19.183,5.816c-4.817,3.818 -8.162,9.634 -10.073,17.45l57.728,0Z" style="fill:#050505;fill-rule:nonzero;"/><path id="path56" d="M74.021,1424.54c-9.37,0 -16.816,-2.493 -22.304,-7.467c-5.517,-5.033 -8.251,-11.827 -8.251,-20.399c-0,-8.551 2.563,-15.385 7.728,-20.484c5.206,-5.076 12.762,-8.249 22.656,-9.46l21.962,-2.778c1.777,-0.178 3.472,-0.477 5.032,-0.957c2.084,-0.521 3.689,-1.582 4.862,-3.21c1.15,-1.606 1.737,-3.65 1.737,-6.078l0,-0.783c0,-5.139 -1.955,-9.156 -5.815,-12.066c-3.883,-2.885 -9.289,-4.341 -16.233,-4.341c-6.662,0 -11.851,1.546 -15.541,4.601c-3.71,3.084 -5.965,7.685 -6.77,13.806l-14.84,0c0.734,-10.529 4.423,-18.429 11.023,-23.7c6.638,-5.249 16.167,-7.901 28.561,-7.901c11.628,-0 20.484,2.517 26.56,7.556c6.079,5.033 9.113,12.39 9.113,22.045l-0,52.606c-0,1.627 0.477,2.927 1.477,3.904c0.977,1 2.301,1.478 3.993,1.478c0.456,-0 1.151,-0.044 2.083,-0.172c0.912,-0.11 1.934,-0.284 3.041,-0.523l-0,11.634c-1.567,0.563 -3.212,1.04 -4.95,1.389c-1.734,0.389 -3.19,0.606 -4.341,0.606c-6.076,-0 -10.505,-1.695 -13.283,-5.033c-1.799,-2.196 -3.077,-5.317 -3.815,-9.379c-1.217,1.456 -2.606,2.867 -4.167,4.256c-8.051,7.25 -17.883,10.85 -29.518,10.85Zm33.422,-40.538l0,-10.417c-3.016,1.454 -6.339,2.433 -9.982,2.95l-14.755,2.172c-7.773,1.039 -13.433,2.845 -17.018,5.384c-3.598,2.561 -5.382,5.987 -5.382,10.328c0,5.382 1.432,9.527 4.345,12.411c2.949,2.91 7.116,4.344 12.5,4.344c8.505,0 15.666,-2.278 21.527,-6.862c3.989,-3.233 6.617,-6.877 7.9,-10.933c0.216,-0.738 0.434,-1.955 0.605,-3.65c0.171,-1.734 0.26,-3.644 0.26,-5.727Zm43.707,-93.661l16.144,0l-0,131.593l-16.144,-0l-0,-131.593Z" style="fill-rule:nonzero;"/><rect id="path58" x="191.973" y="1290.35" width="16.144" height="131.599" style="fill-rule:nonzero;"/><path id="path60" d="M338.151,1353.88c-0.479,-5.316 -2.645,-9.416 -6.513,-12.326c-3.817,-2.952 -8.982,-4.423 -15.449,-4.423c-6.727,0 -11.851,1.189 -15.367,3.555c-3.472,2.322 -5.206,5.712 -5.206,10.156c0,3.433 1.24,5.99 3.733,7.728c2.428,1.734 7.289,3.472 14.583,5.206l16.667,3.911c9.312,2.254 15.972,5.377 19.968,9.373c3.927,3.949 5.9,9.459 5.9,16.577c0,9.506 -3.429,17.016 -10.245,22.572c-6.834,5.556 -16.1,8.333 -27.778,8.333c-13.494,0 -23.566,-2.649 -30.206,-7.988c-6.6,-5.378 -10.243,-13.8 -10.937,-25.256l15.448,-0c0.805,6.834 3.212,11.784 7.208,14.839c4.038,3.017 10.199,4.516 18.487,4.516c7.229,0 12.695,-1.343 16.406,-4.077c3.754,-2.778 5.645,-6.795 5.645,-12.066c-0,-3.301 -1.218,-5.818 -3.646,-7.557c-2.433,-1.734 -7.355,-3.472 -14.755,-5.206l-16.666,-3.904c-9.028,-2.196 -15.456,-5.234 -19.274,-9.117c-3.821,-3.817 -5.726,-9.156 -5.726,-16.061c-0,-9.028 3.211,-16.168 9.633,-21.439c6.423,-5.249 15.128,-7.901 26.128,-7.901c11.112,-0 19.965,2.734 26.56,8.162c6.6,5.384 10.118,12.845 10.595,22.393l-15.193,0Z" style="fill-rule:nonzero;"/><path id="path62" d="M414.017,1424.54c-13.255,0 -24,-4.644 -32.2,-13.978c-8.228,-9.305 -12.329,-21.527 -12.329,-36.627c-0,-15.15 4.101,-27.368 12.329,-36.635c8.2,-9.309 18.945,-13.977 32.2,-13.977c13.372,-0 24.134,4.668 32.294,13.977c8.162,9.267 12.24,21.485 12.24,36.635c-0,15.1 -4.078,27.322 -12.24,36.627c-8.16,9.334 -18.922,13.978 -32.294,13.978Zm-0,-13.889c8.444,0 15.15,-3.3 20.139,-9.893c5.039,-6.645 7.554,-15.584 7.554,-26.823c-0,-11.222 -2.515,-20.161 -7.554,-26.827c-4.989,-6.639 -11.695,-9.979 -20.139,-9.979c-8.505,0 -15.256,3.34 -20.224,9.979c-4.993,6.666 -7.465,15.605 -7.465,26.827c0,11.239 2.472,20.178 7.465,26.823c4.968,6.593 11.719,9.893 20.224,9.893Z" style="fill-rule:nonzero;"/><path id="path64" d="M497.072,1339.47l0,82.465l-16.061,-0l0,-82.465l-13.283,-0l-0,-13.28l13.283,0l0,-16.321c0,-7.116 2.083,-12.454 6.25,-16.055c4.167,-3.585 10.417,-5.384 18.75,-5.384l7.116,0.26l0,14.584l-6.333,-0.349c-3.126,-0 -5.533,1.021 -7.204,3.038c-1.695,2.04 -2.518,4.861 -2.518,8.507l0,11.72l16.055,0l0,13.28l-16.055,-0Z" style="fill-rule:nonzero;"/><path id="path66" d="M563.022,1421.86c-5.45,0.801 -9.439,1.211 -11.978,1.211c-7.01,0 -11.96,-1.516 -14.844,-4.6c-2.91,-3.121 -4.344,-8.459 -4.344,-16.055l-0,-63.112l-13.278,-0l0,-13.106l13.278,0l-0,-26.909l16.061,-0l-0,26.909l15.105,0l0,13.106l-15.105,-0l-0,63.112c-0,2.144 0.822,3.861 2.517,5.117c1.738,1.283 4.017,1.91 6.855,1.91l5.733,-0l0,12.417Z" style="fill-rule:nonzero;"/><path id="path68" d="M596.594,1421.94l-27.172,-95.745l17.711,0l18.4,76.218l18.661,-76.218l17.884,0l19.272,76.735l19.444,-76.735l15.973,0l-27.084,95.745l-17.272,-0l-19.794,-74.826l-18.75,74.826l-17.273,-0Z" style="fill-rule:nonzero;"/><path id="path70" d="M736.456,1424.54c-9.373,0 -16.817,-2.493 -22.306,-7.467c-5.511,-5.033 -8.25,-11.827 -8.25,-20.399c-0,-8.551 2.561,-15.385 7.728,-20.484c5.211,-5.076 12.761,-8.249 22.655,-9.46l21.961,-2.778c1.784,-0.178 3.473,-0.477 5.039,-0.957c2.084,-0.521 3.689,-1.582 4.861,-3.21c1.15,-1.606 1.734,-3.65 1.734,-6.078l-0,-0.783c-0,-5.139 -1.95,-9.156 -5.817,-12.066c-3.883,-2.885 -9.289,-4.341 -16.233,-4.341c-6.661,0 -11.845,1.546 -15.539,4.601c-3.706,3.084 -5.967,7.685 -6.767,13.806l-14.844,0c0.739,-10.529 4.428,-18.429 11.022,-23.7c6.644,-5.249 16.167,-7.901 28.561,-7.901c11.633,-0 20.483,2.517 26.561,7.556c6.078,5.033 9.117,12.39 9.117,22.045l-0,52.606c-0,1.627 0.478,2.927 1.472,3.904c0.978,1 2.3,1.478 3.995,1.478c0.455,-0 1.15,-0.044 2.083,-0.172c0.911,-0.11 1.933,-0.284 3.039,-0.523l-0,11.634c-1.561,0.563 -3.211,1.04 -4.95,1.389c-1.734,0.389 -3.189,0.606 -4.339,0.606c-6.078,-0 -10.506,-1.695 -13.283,-5.033c-1.8,-2.196 -3.078,-5.317 -3.817,-9.379c-1.217,1.456 -2.606,2.867 -4.167,4.256c-8.05,7.25 -17.883,10.85 -29.516,10.85Zm33.422,-40.538l-0,-10.417c-3.017,1.454 -6.334,2.433 -9.984,2.95l-14.755,2.172c-7.767,1.039 -13.433,2.845 -17.017,5.384c-3.6,2.561 -5.378,5.987 -5.378,10.328c0,5.382 1.434,9.527 4.339,12.411c2.95,2.91 7.117,4.344 12.5,4.344c8.506,0 15.667,-2.278 21.528,-6.862c3.995,-3.233 6.617,-6.877 7.9,-10.933c0.217,-0.738 0.433,-1.955 0.606,-3.65c0.172,-1.734 0.261,-3.644 0.261,-5.727Z" style="fill-rule:nonzero;"/><path id="path72" d="M815.494,1421.94l0,-95.745l15.278,0l0,16.318c1.389,-2.539 2.867,-4.861 4.428,-6.944c6.078,-8.156 13.561,-12.24 22.483,-12.24c1.434,-0 2.95,0.262 4.511,0.783l0,16.496l-3.294,-0.089c-8.683,-0 -15.411,2.606 -20.139,7.81c-4.755,5.212 -7.122,12.656 -7.122,22.311l-0,51.3l-16.145,-0Z" style="fill-rule:nonzero;"/><path id="path74" d="M913.544,1424.54c-13.544,0 -24.2,-4.277 -31.944,-12.849c-7.772,-8.611 -11.633,-20.506 -11.633,-35.673c-0,-16.083 4.077,-28.867 12.239,-38.372c8.2,-9.544 19.227,-14.323 33.072,-14.323c12.544,-0 22.678,4.668 30.383,13.977c7.683,9.267 11.545,21.485 11.545,36.635l-0.173,5.727l-69.966,-0c0.627,9.551 2.8,16.84 6.511,21.873c4.511,6.078 11.65,9.116 21.439,9.116c6.183,0 11.566,-1.738 16.144,-5.21c4.561,-3.472 7.383,-7.856 8.422,-13.195l15.884,0c-2.384,10.482 -7.161,18.494 -14.323,24.05c-7.116,5.512 -16.316,8.244 -27.6,8.244Zm26.823,-57.81c-0.478,-8.9 -2.673,-15.844 -6.6,-20.833c-4.339,-5.428 -10.739,-8.162 -19.184,-8.162c-8.461,-0 -15.233,3.166 -20.311,9.462c-3.994,4.926 -6.405,11.438 -7.205,19.533l53.3,-0Z" style="fill-rule:nonzero;"/><path id="path76" d="M1027.89,1326.19l16.146,0l-0,95.745l-16.146,-0l-0,-95.745Zm-0.178,-35.848l16.495,0l0,18.227l-16.495,0l0,-18.227Z" style="fill-rule:nonzero;"/><path id="path78" d="M1123.04,1353.88c-0.477,-5.316 -2.644,-9.416 -6.505,-12.326c-3.822,-2.952 -8.989,-4.423 -15.456,-4.423c-6.727,0 -11.85,1.189 -15.361,3.555c-3.472,2.322 -5.211,5.712 -5.211,10.156c0,3.433 1.239,5.99 3.733,7.728c2.434,1.734 7.295,3.472 14.584,5.206l16.666,3.911c9.312,2.254 15.973,5.377 19.967,9.373c3.928,3.949 5.9,9.459 5.9,16.577c0,9.506 -3.428,17.016 -10.239,22.572c-6.839,5.556 -16.105,8.333 -27.778,8.333c-13.5,0 -23.572,-2.649 -30.211,-7.988c-6.594,-5.378 -10.244,-13.8 -10.939,-25.256l15.456,-0c0.8,6.834 3.211,11.784 7.2,14.839c4.039,3.017 10.2,4.516 18.494,4.516c7.223,0 12.695,-1.343 16.406,-4.077c3.75,-2.778 5.639,-6.795 5.639,-12.066c-0,-3.301 -1.211,-5.818 -3.645,-7.557c-2.427,-1.734 -7.355,-3.472 -14.755,-5.206l-16.667,-3.904c-9.028,-2.196 -15.45,-5.234 -19.272,-9.117c-3.817,-3.817 -5.728,-9.156 -5.728,-16.061c0,-9.028 3.211,-16.168 9.634,-21.439c6.422,-5.249 15.127,-7.901 26.127,-7.901c11.111,-0 19.967,2.734 26.567,8.162c6.594,5.384 10.111,12.845 10.589,22.393l-15.195,0Z" style="fill-rule:nonzero;"/><path id="path80" d="M1212.96,1421.94l-0,-95.745l15.277,0l0,16.318c1.389,-2.539 2.867,-4.861 4.428,-6.944c6.078,-8.156 13.561,-12.24 22.483,-12.24c1.434,-0 2.95,0.262 4.512,0.783l-0,16.496l-3.295,-0.089c-8.683,-0 -15.411,2.606 -20.139,7.81c-4.755,5.212 -7.122,12.656 -7.122,22.311l-0,51.3l-16.144,-0Z" style="fill-rule:nonzero;"/><path id="path82" d="M1272.46,1326.19l16.144,0l-0,95.745l-16.144,-0l0,-95.745Zm-0.172,-35.848l16.489,0l-0,18.227l-16.489,0l-0,-18.227Z" style="fill-rule:nonzero;"/><path id="path84" d="M1349.31,1424.54c-12.85,0 -23.067,-4.772 -30.645,-14.323c-7.594,-9.594 -11.372,-22.571 -11.372,-38.889c-0,-14.344 3.672,-25.909 11.028,-34.722c7.333,-8.854 16.927,-13.283 28.733,-13.283c11.739,-0 21.05,4.995 27.95,14.935l1.217,1.731l-0,-49.648l16.144,0l0,131.593l-14.928,-0l0,-13.106l-2.089,2.952c-6.594,8.505 -15.277,12.76 -26.038,12.76Zm0.866,-86.716c-8.983,-0 -15.578,2.905 -19.789,8.678c-4.166,5.727 -6.25,14.844 -6.25,27.344c0,11.805 2.256,20.922 6.767,27.344c4.517,6.378 10.939,9.55 19.272,9.55c7.817,0 14.084,-2.91 18.839,-8.771c4.795,-5.901 7.206,-13.668 7.206,-23.351c-0,-13.06 -2.261,-23.134 -6.773,-30.206c-4.472,-7.055 -10.894,-10.588 -19.272,-10.588Z" style="fill-rule:nonzero;"/><path id="path86" d="M1415.32,1326.19l16.144,0l-0,95.745l-16.144,-0l0,-95.745Zm-0.172,-35.848l16.489,0l-0,18.227l-16.489,0l-0,-18.227Z" style="fill-rule:nonzero;"/><path id="path88" d="M1531.23,1387.48c-1.695,12.045 -5.967,21.244 -12.845,27.604c-6.905,6.318 -16.016,9.462 -27.344,9.462c-12.739,0 -22.895,-4.555 -30.472,-13.717c-7.595,-9.132 -11.373,-21.439 -11.373,-36.888c0,-15.456 3.912,-27.739 11.723,-36.895c7.855,-9.138 18.422,-13.717 31.683,-13.717c11.5,-0 20.683,3.172 27.517,9.462c6.877,6.25 10.589,14.91 11.111,25.954l-15.539,0c-0.65,-6.877 -3.039,-12.194 -7.206,-15.972c-4.122,-3.754 -9.589,-5.638 -16.405,-5.638c-8.117,0 -14.472,3.273 -19.095,9.805c-4.644,6.556 -6.944,15.54 -6.944,27.001c-0,12.216 2.128,21.395 6.422,27.517c4.272,6.137 10.678,9.199 19.183,9.199c6.25,0 11.462,-1.994 15.628,-5.989c4.206,-4.039 7.028,-9.766 8.417,-17.188l15.539,0Z" style="fill-rule:nonzero;"/><path id="path90" d="M1563.96,1326.19l-0,61.717c-0,8.051 1.516,13.867 4.6,17.45c3.122,3.54 8.177,5.295 15.188,5.295c7.75,0 13.889,-2.973 18.406,-8.938c4.556,-6.012 6.856,-14.174 6.856,-24.484l-0,-51.04l16.061,0l-0,95.745l-15.278,-0l-0,-14.583c-1.111,1.74 -2.3,3.389 -3.561,4.95c-6.9,8.162 -15.495,12.239 -25.784,12.239c-10.888,0 -19.05,-2.71 -24.477,-8.162c-5.445,-5.421 -8.161,-13.561 -8.161,-24.388l-0,-65.801l16.15,0Z" style="fill-rule:nonzero;"/><rect id="path92" x="1649.69" y="1290.35" width="16.146" height="131.599" style="fill-rule:nonzero;"/><path id="path94" d="M1729.23,1424.54c-13.261,0 -24.005,-4.644 -32.205,-13.978c-8.228,-9.305 -12.328,-21.527 -12.328,-36.627c-0,-15.15 4.1,-27.368 12.328,-36.635c8.2,-9.309 18.944,-13.977 32.205,-13.977c13.367,-0 24.128,4.668 32.289,13.977c8.161,9.267 12.239,21.485 12.239,36.635c0,15.1 -4.078,27.322 -12.239,36.627c-8.161,9.334 -18.922,13.978 -32.289,13.978Zm0,-13.889c8.439,0 15.145,-3.3 20.139,-9.893c5.034,-6.645 7.55,-15.584 7.55,-26.823c0,-11.222 -2.516,-20.161 -7.55,-26.827c-4.994,-6.639 -11.7,-9.979 -20.139,-9.979c-8.511,0 -15.255,3.34 -20.227,9.979c-4.989,6.666 -7.467,15.605 -7.467,26.827c-0,11.239 2.478,20.178 7.467,26.823c4.972,6.593 11.716,9.893 20.227,9.893Z" style="fill-rule:nonzero;"/><path id="path96" d="M1808.88,1326.19l-0,61.717c-0,8.051 1.516,13.867 4.6,17.45c3.122,3.54 8.178,5.295 15.189,5.295c7.75,0 13.889,-2.973 18.405,-8.938c4.556,-6.012 6.856,-14.174 6.856,-24.484l-0,-51.04l16.061,0l-0,95.745l-15.278,-0l0,-14.583c-1.111,1.74 -2.3,3.389 -3.561,4.95c-6.9,8.162 -15.494,12.239 -25.783,12.239c-10.895,0 -19.05,-2.71 -24.478,-8.162c-5.445,-5.421 -8.161,-13.561 -8.161,-24.388l-0,-65.801l16.15,0Z" style="fill-rule:nonzero;"/><path id="path98" d="M1949.13,1353.88c-0.477,-5.316 -2.65,-9.416 -6.511,-12.326c-3.822,-2.952 -8.983,-4.423 -15.45,-4.423c-6.728,0 -11.85,1.189 -15.366,3.555c-3.473,2.322 -5.206,5.712 -5.206,10.156c-0,3.433 1.233,5.99 3.728,7.728c2.433,1.734 7.294,3.472 14.583,5.206l16.667,3.911c9.311,2.254 15.972,5.377 19.966,9.373c3.928,3.949 5.906,9.459 5.906,16.577c-0,9.506 -3.433,17.016 -10.244,22.572c-6.839,5.556 -16.106,8.333 -27.778,8.333c-13.5,0 -23.567,-2.649 -30.211,-7.988c-6.595,-5.378 -10.239,-13.8 -10.934,-25.256l15.45,-0c0.8,6.834 3.211,11.784 7.206,14.839c4.033,3.017 10.2,4.516 18.489,4.516c7.228,0 12.694,-1.343 16.405,-4.077c3.756,-2.778 5.645,-6.795 5.645,-12.066c-0,-3.301 -1.217,-5.818 -3.65,-7.557c-2.428,-1.734 -7.356,-3.472 -14.756,-5.206l-16.666,-3.904c-9.028,-2.196 -15.45,-5.234 -19.273,-9.117c-3.816,-3.817 -5.727,-9.156 -5.727,-16.061c-0,-9.028 3.211,-16.168 9.638,-21.439c6.423,-5.249 15.123,-7.901 26.128,-7.901c11.111,-0 19.961,2.734 26.561,8.162c6.595,5.384 10.111,12.845 10.589,22.393l-15.189,0Z" style="fill-rule:nonzero;"/><path id="path100" d="M981.056,631.317l3.472,-0c10.244,-0 17.033,-1.173 20.4,-3.561c3.339,-2.367 5.033,-6.595 5.033,-12.673c0,-6.533 -1.8,-11.133 -5.383,-13.805c-3.6,-2.711 -10.284,-4.078 -20.05,-4.078l-3.472,0l-0,34.117Zm-1.217,15.1l-0,53.3l-18.145,-0l0,-119.184l27,0c7.923,0 14.062,0.523 18.4,1.561c4.384,1.045 8.117,2.756 11.2,5.123c3.689,2.911 6.534,6.644 8.506,11.2c2.022,4.577 3.039,9.55 3.039,14.927c-0,9.55 -2.322,17.062 -6.945,22.484c-4.577,5.383 -11.372,8.639 -20.4,9.722l41.062,54.167l-21.962,-0l-39.583,-53.3l-2.172,-0Z" style="fill:#ffc223;fill-rule:nonzero;"/></g><g transform="matrix(0.767857,0,0,1,-55.4594,1.13687e-13)"><text x="972.537px" y="926.079px" style="font-family:'Futura-CondensedExtraBold', 'Futura', sans-serif;font-weight:800;font-stretch:condensed;font-size:91.384px;">Ridiculous Sof<tspan x="1535.84px 1566.94px 1637.17px 1688.49px 1724.76px " y="926.079px 926.079px 926.079px 926.079px 926.079px ">tware</tspan></text></g></g></g></svg>