<?xml version="1.0" encoding="UTF-8" standalone="no"?><!DOCTYPE svg PUBLIC "-//W3C//DTD SVG 1.1//EN" "http://www.w3.org/Graphics/SVG/1.1/DTD/svg11.dtd"><svg width="100%" height="100%" viewBox="0 0 2000 1428" version="1.1" xmlns="http://www.w3.org/2000/svg" xmlns:xlink="http://www.w3.org/1999/xlink" xml:space="preserve" xmlns:serif="http://www.serif.com/" style="fill-rule:evenodd;clip-rule:evenodd;stroke-linejoin:round;stroke-miterlimit:2;"><g id="g10"><g id="g12"><path id="path14" d="M1126.58,232.228c-9.805,-34.639 -34.439,-53.345 -73.872,-56.122c-0.194,-0 -4.817,0.088 -13.889,0.283l0,30.272l-44.722,0l-0,21.117l44.722,-0l0,36.933l-44.722,0l-0,21.117l44.722,-0l0,30.272c9.072,0.2 13.695,0.283 13.889,0.283c30.556,-1.3 52.956,-13.972 67.211,-38.061c24.634,12.778 46.856,28.711 66.667,47.784l-108.333,148.327c-25.173,33.706 -54.339,50.85 -87.5,51.389c-33.139,-0.733 -62.306,-17.855 -87.5,-51.389l-106.662,-146.111c20.006,-19.989 42.862,-36.655 68.617,-50c13.889,24.089 36.289,36.761 67.211,38.061c0,-0.194 4.534,-0.283 13.606,-0.283l-0,-139.711c-9.072,-0.195 -13.606,-0.283 -13.606,-0.283c-39.628,2.777 -64.433,21.483 -74.433,56.122c-58.333,27.211 -104.256,66.839 -137.783,118.878c-33.706,52.216 -50.828,110.655 -51.389,175.283c2.405,91.472 34.072,167.689 95.005,228.6c60.917,61.111 137.134,92.778 228.606,95.011c91.666,-2.411 167.861,-34.072 228.6,-95.011c60.939,-60.739 92.6,-136.933 95.011,-228.6c-0.739,-64.628 -17.861,-123.067 -51.389,-175.283c-33.706,-52.039 -79.733,-91.667 -138.067,-118.878m-134.155,573.044c-78.884,-2.039 -144.639,-29.25 -197.222,-81.661c-52.412,-52.605 -79.623,-118.339 -81.662,-197.222l0,-0.283c0.912,-57.228 16.467,-108.528 46.656,-153.884l73.611,128.884c16.667,27.216 32.139,62.216 46.4,104.994c14.622,42.967 24.433,96.311 29.445,160c26.111,8.9 53.688,13.522 82.772,13.889c28.516,-0.367 55.639,-4.9 81.378,-13.606c5.75,-70.183 16.583,-127.405 32.511,-171.655c15.927,-44.078 32.961,-79.817 51.105,-107.228l65.845,-117.511c31.094,46.111 47.022,98.155 47.761,156.117l-0,0.283c-1.845,78.883 -29.056,144.617 -81.661,197.222c-52.411,52.411 -118.056,79.622 -196.939,81.661"/><path id="path16" d="M925.761,427.778c0.367,18.878 6.856,34.633 19.445,47.222c12.583,12.411 28.233,18.878 46.938,19.444c18.9,-0.566 34.634,-7.033 47.223,-19.444c12.411,-12.589 18.9,-28.344 19.444,-47.222c-0.544,-18.706 -7.033,-34.356 -19.444,-46.939c-12.589,-12.611 -28.323,-19.078 -47.223,-19.445c-18.705,0.367 -34.355,6.834 -46.938,19.445c-12.589,12.583 -19.078,28.233 -19.445,46.939"/><path id="path18" d="M1201.32,0l-129.166,75.822l23.611,11.111l-73.611,73.611l129.166,-75.277l-23.611,-11.656l73.611,-73.611" style="fill:#ffc223;"/><path id="path20" d="M916.039,75.822l-129.167,-75.822l73.611,73.611l-23.611,11.656l129.167,75.277l-73.611,-73.611l23.611,-11.111" style="fill:#ffc223;"/><path id="path100" d="M981.056,631.317l3.472,-0c10.244,-0 17.033,-1.173 20.4,-3.561c3.339,-2.367 5.033,-6.595 5.033,-12.673c0,-6.533 -1.8,-11.133 -5.383,-13.805c-3.6,-2.711 -10.284,-4.078 -20.05,-4.078l-3.472,0l-0,34.117Zm-1.217,15.1l-0,53.3l-18.145,-0l0,-119.184l27,0c7.923,0 14.062,0.523 18.4,1.561c4.384,1.045 8.117,2.756 11.2,5.123c3.689,2.911 6.534,6.644 8.506,11.2c2.022,4.577 3.039,9.55 3.039,14.927c-0,9.55 -2.322,17.062 -6.945,22.484c-4.577,5.383 -11.372,8.639 -20.4,9.722l41.062,54.167l-21.962,-0l-39.583,-53.3l-2.172,-0Z" style="fill:#ffc223;fill-rule:nonzero;"/></g><g transform="matrix(0.767857,0,0,1,-55.4594,1.13687e-13)"><text x="972.537px" y="926.079px" style="font-family:'Futura-CondensedExtraBold', 'Futura', sans-serif;font-weight:800;font-stretch:condensed;font-size:91.384px;">Ridiculous Sof<tspan x="1535.84px 1566.94px 1637.17px 1688.49px 1724.76px " y="926.079px 926.079px 926.079px 926.079px 926.079px ">tware</tspan></text></g></g></svg>